<?xml version="1.0" encoding="UTF-8"?>
<!-- Generated by Pixelmator Pro 4.0 -->
<svg width="669" height="776" viewBox="0 0 669 776" xmlns="http://www.w3.org/2000/svg">
    <g id="Crystal">
        <linearGradient id="linearGradient1" x1="334.5" y1="1" x2="334.5" y2="775" gradientUnits="userSpaceOnUse">
            <stop offset="1e-05" stop-color="#d8a4ff" stop-opacity="1"/>
            <stop offset="1" stop-color="#933bfe" stop-opacity="1"/>
        </linearGradient>
        <path id="Base-Shape" fill="url(#linearGradient1)" fill-rule="evenodd" stroke="none" d="M 563 652.849548 L 668 402.840698 L 523 280.690277 L 520 191.645996 L 338 1 L 151 182.513245 L 150 288.360352 L 1 410.831848 L 120 665.407104 L 338 775 Z"/>
        <g id="Shade-Group-4" opacity="0.6" style="mix-blend-mode:hard-light">
            <path id="Path-copy-19" fill="#656465" fill-rule="evenodd" stroke="none" d="M 143 483.893799 L 342 691.663696 L 270 374.300873 Z"/>
            <path id="Path-copy-8" fill="#383838" fill-rule="evenodd" stroke="none" d="M 529 482.752197 L 563 652.849548 L 668 402.840698 Z"/>
            <path id="Path-copy-16" fill="#e7e6e7" fill-rule="evenodd" stroke="none" d="M 408 402.840698 L 443 246.442505 L 348 301.238953 Z"/>
            <path id="Path-copy-13" fill="#909091" fill-rule="evenodd" stroke="none" d="M 348 301.238953 L 245 241.876099 L 270 374.300873 Z"/>
        </g>
        <g id="Shade-Group-3" opacity="0.6" style="mix-blend-mode:hard-light">
            <path id="Path-copy-3" fill="#606060" fill-rule="evenodd" stroke="none" d="M 120 665.407104 L 338 775 L 143 482.752197 Z"/>
            <path id="Path-copy-11" fill="#dcdcdc" fill-rule="evenodd" stroke="none" d="M 338 1 L 245 241.876099 L 348 301.238953 L 443 247.584045 Z"/>
            <path id="Path-copy-14" fill="#cbcacb" fill-rule="evenodd" stroke="none" d="M 270 374.300873 L 245 241.876099 L 148 354.893799 L 143 483.893799 L 270 374.300873 Z"/>
            <path id="Path-copy-15" fill="#595959" fill-rule="evenodd" stroke="none" d="M 529 482.752197 L 443 247.584045 L 342 692.805298 Z"/>
        </g>
        <g id="Shade-Group-2" opacity="0.6" style="mix-blend-mode:hard-light">
            <path id="Path-copy-6" fill="#ffffff" fill-rule="evenodd" stroke="none" d="M 338 1 L 151 182.513245 L 245 244.159302 Z"/>
            <path id="Path-copy-12" fill="#393939" fill-rule="evenodd" stroke="none" d="M 443 247.584045 L 529 481.610626 L 520 191.645996 Z"/>
            <path id="Path-copy-18" fill="#b7b7b7" fill-rule="evenodd" stroke="none" d="M 338 775 L 342 691.663696 L 143 482.752197 Z"/>
            <path id="Path-copy-4" fill="#f8f8f8" fill-rule="evenodd" stroke="none" d="M 151 287.539825 L 1 410.831848 L 143 483.893799 Z"/>
        </g>
        <g id="Shade-Group-1" opacity="0.6" style="mix-blend-mode:hard-light">
            <path id="Path-copy-7" fill="#191919" fill-rule="evenodd" stroke="none" d="M 342 692.805298 L 338 775 L 563 652.849548 L 529 482.752197 Z"/>
            <path id="Path-copy" fill="#cacaca" fill-rule="evenodd" stroke="none" d="M 1 410.831848 L 120 665.407104 L 143 482.752197 Z"/>
            <path id="Path-copy-5" fill="#e1e1e1" fill-rule="evenodd" stroke="none" d="M 151 182.513245 L 150 288.681427 L 148 356.0354 L 244 243.0177 Z"/>
            <path id="Path-copy-9" fill="#cfcecf" fill-rule="evenodd" stroke="none" d="M 529 482.752197 L 668 402.840698 L 523 280.690277 Z"/>
            <path id="Path-copy-10" fill="#aaaaaa" fill-rule="evenodd" stroke="none" d="M 338 1 L 443 247.584045 L 520 191.645996 Z"/>
            <path id="Path-copy-17" fill="#bebebe" fill-rule="evenodd" stroke="none" d="M 342 692.805298 L 408 402.840668 L 348 301.238922 L 270 374.300842 Z"/>
        </g>
    </g>
</svg>
