<?xml version="1.0" encoding="UTF-8"?>
<!-- Generated by Pixelmator Pro 4.0 -->
<svg width="728" height="768" viewBox="0 0 728 768" xmlns="http://www.w3.org/2000/svg">
    <g id="Shading-4">
        <path id="Path-copy-4" fill="#7639bb" fill-rule="evenodd" stroke="none" d="M 224 725 L 134 462 L 1 446 L 112 692 Z"/>
        <path id="Path-copy-9" fill="#7f47be" fill-rule="evenodd" stroke="none" d="M 294 251 L 203 183 L 215 389 L 336 759 L 351 763 Z"/>
        <path id="Path-copy-11" fill="#5b3385" fill-rule="evenodd" stroke="none" d="M 438 289 L 378 764 L 499 733 L 530 185 Z"/>
        <path id="Path-copy-13" fill="#502880" fill-rule="evenodd" stroke="none" d="M 499 733 L 615 697 L 727 453 L 599 473 Z"/>
        <path id="Path-copy-2" fill="#d9b6ff" fill-rule="evenodd" stroke="none" d="M 57 281 L 1 446 L 134 463 Z"/>
        <path id="Path-copy-6" fill="#f2e2ff" fill-rule="evenodd" stroke="none" d="M 364 1 L 203 183 L 294 251 Z"/>
        <path id="Path-copy-10" fill="#ae67fc" fill-rule="evenodd" stroke="none" d="M 438 290 L 294 251 L 351 763 L 364 767 L 378 764 Z"/>
        <path id="Path-copy" fill="#d0a5ff" fill-rule="evenodd" stroke="none" d="M 599 474 L 668 285 L 517 400 Z"/>
        <path id="Path-copy-3" fill="#bd7fff" fill-rule="evenodd" stroke="none" d="M 215 389 L 57 281 L 134 463 Z"/>
        <path id="Path-copy-8" fill="#e0bdfe" fill-rule="evenodd" stroke="none" d="M 364 1 L 455 270 L 530 185 Z"/>
        <path id="Path-copy-14" fill="#a060e5" fill-rule="evenodd" stroke="none" d="M 727 453 L 668 285 L 599 473 Z"/>
        <path id="Path-copy-5" fill="#4c2777" fill-rule="evenodd" stroke="none" d="M 215 389 L 134 462 L 224 725 L 336 759 Z"/>
        <path id="Path-copy-7" fill="#e7cbff" fill-rule="evenodd" stroke="none" d="M 364 1 L 294 251 L 438 290 L 455 270 Z"/>
        <path id="Path-copy-12" fill="#8747ce" fill-rule="evenodd" stroke="none" d="M 499 733 L 599 474 L 517 400 Z"/>
    </g>
</svg>
